<svg xmlns="http://www.w3.org/2000/svg" xmlns:xlink="http://www.w3.org/1999/xlink" width="144" height="144" viewBox="0 0 144 144"><defs><clipPath id="b"><rect width="144" height="144"/></clipPath></defs><g id="a" clip-path="url(#b)"><rect width="144" height="144" fill="#102260"/><path d="M4.2-80.04H35.52A41.048,41.048,0,0,1,46.5-78.66a24.808,24.808,0,0,1,8.52,4.08,18.762,18.762,0,0,1,5.52,6.72,21.083,21.083,0,0,1,1.98,9.42,19.618,19.618,0,0,1-.96,6.54,25.289,25.289,0,0,1-2.04,4.5,14.963,14.963,0,0,1-3,3.6,20.272,20.272,0,0,1,4.8,4.32,25.707,25.707,0,0,1,3.3,5.76,21.515,21.515,0,0,1,1.5,8.52,25.861,25.861,0,0,1-2.04,10.44,22.258,22.258,0,0,1-5.82,7.98,25.72,25.72,0,0,1-9.24,5.04A39.995,39.995,0,0,1,36.84,0H4.2Zm27.6,61.2q9.12,0,9.12-6.96T31.8-32.76H28.92v13.92Zm6-36.84q0-5.52-6-5.52H28.92v11.04H31.8Q37.8-50.16,37.8-55.68ZM33.48-9.6q10.56,0,15.6-4.56a15.551,15.551,0,0,0,5.04-12.12,13.259,13.259,0,0,0-2.1-7.86,19.092,19.092,0,0,0-4.5-4.62,19.063,19.063,0,0,0-6.6-2.64,15.032,15.032,0,0,0,5.16-2.64,14.95,14.95,0,0,0,3.66-4.26,13.248,13.248,0,0,0,1.62-6.9q0-7.56-4.8-11.4T33.48-70.44H16.2V-9.6ZM19.32-12.48V-39.96H33.36a28.923,28.923,0,0,1,6.9.78,17.2,17.2,0,0,1,5.58,2.4,11.442,11.442,0,0,1,3.78,4.26A13.3,13.3,0,0,1,51-26.28q0,7.32-4.86,10.56T33.36-12.48Zm0-30.36V-67.56H33.48q7.8,0,11.22,3.42a12.091,12.091,0,0,1,3.42,8.94,12.091,12.091,0,0,1-3.42,8.94q-3.42,3.42-11.22,3.42Z" transform="translate(39 113)" fill="#ea5568"/></g></svg>